<?xml version="1.0" encoding="UTF-8"?>
<svg xmlns="http://www.w3.org/2000/svg" width="600" height="58" viewBox="0 0 600 58" fill="none">
  <path d="M244.292 53.2422L244.208 56.6025H210.669V0.635551H244.208V3.99911H214.744V26.6234H239.264V29.9065H214.744V53.2422L244.292 53.2422ZM303.926 53.1617V56.6025H273.348V0.635551H277.423V53.1617H303.926ZM370.305 16.8931C369.017 13.3717 367.195 10.3593 364.846 7.85501C362.503 5.35073 359.689 3.41968 356.406 2.06153C353.123 0.703004 349.506 0.0237439 345.546 0.0237439C341.594 0.0237439 337.982 0.709475 334.712 2.08057C331.442 3.45167 328.635 5.38307 326.286 7.87442C323.936 10.3658 322.121 13.3718 320.827 16.8931C319.533 20.4113 318.889 24.3219 318.889 28.6188C318.889 32.9449 319.533 36.8652 320.827 40.3866C322.121 43.9047 323.936 46.9111 326.286 49.402C328.635 51.8966 331.442 53.8215 334.712 55.1765C337.982 56.5382 341.594 57.2139 345.546 57.2139C349.506 57.2139 353.123 56.5382 356.406 55.1765C359.689 53.8215 362.503 51.8966 364.846 49.402C367.195 46.9111 369.017 43.9047 370.305 40.3866C371.599 36.8652 372.242 32.9449 372.242 28.6188C372.242 24.3219 371.599 20.4113 370.305 16.8931ZM366.43 39.1603C365.348 42.2597 363.822 44.8894 361.84 47.0494C359.863 49.2123 357.494 50.8601 354.726 51.9933C351.952 53.1293 348.894 53.6961 345.546 53.6961C342.225 53.6961 339.18 53.1293 336.412 51.9933C333.643 50.8601 331.262 49.2123 329.273 47.0494C327.284 44.8894 325.739 42.2597 324.644 39.1603C323.55 36.0605 323.002 32.5492 323.002 28.6188C323.002 24.7179 323.55 21.2095 324.644 18.0971C325.739 14.9876 327.284 12.3514 329.273 10.1886C331.262 8.02572 333.643 6.37105 336.412 5.2253C339.18 4.0763 342.225 3.50342 345.546 3.50342C348.894 3.50342 351.952 4.0763 354.726 5.2253C357.494 6.37105 359.863 8.02572 361.84 10.1886C363.822 12.3514 365.348 14.9876 366.43 18.0971C367.511 21.2095 368.052 24.7179 368.052 28.6188C368.052 32.5492 367.511 36.0605 366.43 39.1603ZM437.089 47.1862C437.353 47.1862 437.578 47.2795 437.765 47.463L439.342 49.1657C438.184 50.4049 436.922 51.5186 435.57 52.5067C434.212 53.4949 432.718 54.3414 431.096 55.0399C429.474 55.7383 427.697 56.2791 425.759 56.6589C423.822 57.0419 421.691 57.235 419.373 57.235C415.498 57.235 411.945 56.5559 408.713 55.1976C405.481 53.8393 402.707 51.9145 400.389 49.4232C398.065 46.9319 396.269 43.9192 394.988 40.385C393.707 36.8509 393.07 32.9241 393.07 28.5981C393.07 24.3526 393.727 20.4773 395.046 16.9689C396.366 13.4637 398.214 10.451 400.582 7.93398C402.958 5.41373 405.803 3.46319 409.131 2.07914C412.453 0.6951 416.116 0.00307744 420.127 0.00307744C423.944 0.00307744 427.336 0.59532 430.285 1.78302C433.24 2.96751 435.93 4.64446 438.357 6.80422L437.128 8.58416C436.915 8.90281 436.587 9.06053 436.143 9.06053C435.827 9.06053 435.312 8.77085 434.598 8.18826C433.883 7.60889 432.898 6.97158 431.63 6.27312C430.368 5.57466 428.791 4.93414 426.905 4.35477C425.019 3.77218 422.759 3.4825 420.127 3.4825C416.747 3.4825 413.657 4.06509 410.85 5.22382C408.043 6.38256 405.629 8.04664 403.608 10.2064C401.593 12.3694 400.016 15.0055 398.883 18.118C397.75 21.2273 397.184 24.7228 397.184 28.5981C397.184 32.5539 397.756 36.0881 398.902 39.1973C400.055 42.3098 401.625 44.9395 403.634 47.0896C405.636 49.2397 407.998 50.8845 410.728 52.0336C413.457 53.1794 416.406 53.7524 419.573 53.7524C421.575 53.7524 423.358 53.6204 424.929 53.3565C426.493 53.0958 427.942 52.6999 429.261 52.172C430.574 51.6441 431.804 50.9972 432.937 50.2343C434.07 49.4683 435.19 48.5735 436.297 47.5435C436.433 47.4372 436.561 47.3536 436.696 47.286C436.825 47.2216 436.96 47.1862 437.089 47.1862ZM469.016 56.6025H464.941V0.635551H469.016V56.6025ZM538.715 4.07958H519.055V56.6025H514.98V4.07958H495.204V0.635551H538.715V4.07958ZM579.278 33.5437V56.6025H575.242V33.5437L554.52 0.635551H558.08C558.446 0.635551 558.749 0.722458 558.987 0.893047C559.225 1.06686 559.425 1.30826 559.579 1.62691L575.602 27.3348C575.943 27.9399 576.259 28.5289 576.548 29.0954C576.838 29.6619 577.089 30.222 577.302 30.7756C577.514 30.222 577.746 29.6619 578.01 29.0954C578.274 28.5289 578.576 27.9399 578.924 27.3348L594.94 1.62691C595.069 1.33723 595.262 1.09905 595.513 0.91236C595.764 0.728891 596.073 0.635551 596.447 0.635551H600L579.278 33.5437ZM186.807 0.00307744L169.506 57.235H166L183.299 0.00307744H186.807ZM157.224 21.0739L150.854 0.00292969H147.347L155.471 26.875L157.224 21.0739Z" fill="#010002"></path>
  <path d="M118.258 50.3448V54.9533C118.258 56.2263 117.226 57.2578 115.953 57.2578H81.8858C80.6135 57.2578 79.5817 56.2263 79.5817 54.9533V2.30702C79.5817 1.0344 80.6135 0.00292969 81.8858 0.00292969H115.303C116.576 0.00292969 117.607 1.0344 117.607 2.30702V6.91558C117.607 8.18856 116.576 9.22003 115.303 9.22003H88.7988V24.0218H110.179C111.452 24.0218 112.483 25.0533 112.483 26.3259V30.9344C112.483 32.2074 111.452 33.2389 110.179 33.2389H88.7988V48.0407H115.953C117.226 48.0407 118.258 49.0721 118.258 50.3448ZM175.78 0.00292969H170.345C169.329 0.00292969 168.433 0.668173 168.139 1.64034L155.443 43.651L142.745 1.64034C142.452 0.668173 141.556 0.00292969 140.54 0.00292969H135.105C133.868 0.00292969 132.982 1.19613 133.34 2.37962L149.431 55.62C149.725 56.5925 150.62 57.2578 151.636 57.2578H159.248C160.264 57.2578 161.16 56.5925 161.454 55.62L177.545 2.37962C177.903 1.19613 177.017 0.00292969 175.78 0.00292969ZM3.21481 20.5773H0V23.7925H3.21481V20.5773ZM6.39655 33.0398H10.5756V28.8607H6.39655V33.0398ZM6.66897 12.2243H3.48723V15.4061H6.66897V12.2243ZM61.0659 7.79754C63.5393 10.3374 64.8061 13.8149 64.5459 17.3507C64.3228 20.4825 62.9768 23.593 60.6048 26.658V32.6786C60.6048 46.2534 49.6004 57.2578 36.0256 57.2578H10.8538V53.5312H13.9917V50.1007H8.70388V44.8366H5.46355V40.3557H9.94416V42.9441H13.2265V35.787H16.2987V28.6304H13.9917V21.4733H10.6842V14.3166H15.8606V7.1596H8.43577V2.66247H11.877V0.00292969H36.0256C41.7059 0.00292969 46.91 1.95913 51.0703 5.19622C54.5259 4.24597 58.3632 5.09163 61.0659 7.79754ZM25.5161 12.4665C34.2883 11.0997 40.7855 14.4036 45.8594 16.9715C47.5436 17.8294 48.9531 18.5151 50.1992 18.9787C47.9497 13.2949 42.5005 9.22003 36.0256 9.22003H25.5161V12.4665ZM39.9527 47.4653C39.2005 45.1479 36.8928 43.6133 34.386 43.9288C32.174 44.2077 30.4528 45.8857 30.0089 48.0407H36.0256C37.3931 48.0407 38.6934 47.8031 39.9527 47.4653ZM62.6569 17.2087C62.8902 14.2077 61.8282 11.2506 59.739 9.08382C56.5263 5.86542 51.3417 5.76946 48.0126 8.8671L49.1565 10.0114C50.2398 9.20278 51.5559 8.76791 52.9076 8.77222C56.3815 8.77187 59.1981 11.587 59.1985 15.061C59.1988 16.7296 58.5361 18.3304 57.3558 19.5103C53.8215 23.0651 49.746 21.0338 45.0267 18.6032C41.7296 16.9309 37.9991 15.0283 33.4559 14.2635C28.1954 13.4102 22.8807 14.3041 17.2069 16.9715C16.138 17.4747 15.6791 18.7494 16.1826 19.8186C16.2124 19.8815 20.1309 26.645 20.1316 26.6465C20.7185 27.6542 22.0041 28.0064 23.0226 27.4386C23.023 27.4386 27.2786 25.1298 30.0165 22.6385C30.3906 22.2981 30.9696 22.3254 31.3096 22.6992C31.6499 23.0734 31.6226 23.6523 31.2489 23.9923C29.5248 25.528 25.7106 28.1294 25.7106 28.1294L25.5161 28.2368V48.0407H28.1027C28.6864 44.2663 32.179 41.6369 35.9782 42.1545C38.678 42.5225 40.8724 44.41 41.6965 46.9309C43.3922 46.2476 44.9336 45.2704 46.2648 44.0582C46.8374 40.0965 48.3299 35.0244 52.2373 32.1036C58.7032 27.2625 62.3047 22.1238 62.6569 17.2087ZM43.9978 22.1849C43.0029 22.1885 42.1997 22.9979 42.2033 23.9923L45.081 25.4346C45.5414 25.0932 45.8073 24.5519 45.8055 23.979C45.8016 22.9846 44.9922 22.181 43.9978 22.1849ZM1.35152 54.4174H5.07811V50.6908H1.35152V54.4174Z" fill="url(#paint0_linear_511_1204)"></path>
  <defs>
    <linearGradient id="paint0_linear_511_1204" x1="82.4485" y1="58.8329" x2="90.6874" y2="-2.74185" gradientUnits="userSpaceOnUse">
      <stop stop-color="#209BC4"></stop>
      <stop offset="1" stop-color="#4DC9C0"></stop>
    </linearGradient>
  </defs>
</svg>
